<svg xmlns="http://www.w3.org/2000/svg" viewBox="0 0 256 256">
  <defs>
    <linearGradient id="bg" x1="0" y1="0" x2="1" y2="1">
      <stop offset="0%" stop-color="#89dcff"/>
      <stop offset="100%" stop-color="#2f7ac5"/>
    </linearGradient>
  </defs>
  <rect width="256" height="256" fill="url(#bg)"/>
  <g fill="none" stroke="#d8f7ff" stroke-width="4" stroke-opacity="0.62">
    <path d="M10 46c19 18 36 19 55 0s36-19 55 0 36 19 55 0 36-19 55 0"/>
    <path d="M0 118c17 14 35 14 54 0s37-14 56 0 37 14 56 0 37-14 56 0"/>
    <path d="M20 188c15 12 32 12 49 0s34-12 51 0 34 12 51 0 34-12 51 0"/>
  </g>
</svg>